<mxfile host="app.diagrams.net" agent="Mozilla/5.0 (Windows NT 10.0; Win64; x64) AppleWebKit/537.36 (KHTML, like Gecko) Chrome/135.0.0.0 Safari/537.36" version="26.2.14">
  <diagram name="Page-1" id="jtc_rvju5dQwGyDVnypy">
    <mxGraphModel grid="1" page="1" gridSize="10" guides="1" tooltips="1" connect="1" arrows="1" fold="1" pageScale="1" pageWidth="850" pageHeight="1100" math="0" shadow="0">
      <root>
        <mxCell id="0" />
        <mxCell id="1" parent="0" />
        <mxCell id="ZUQyiE253Cws7TkJIunK-1" value="Cliente" style="shape=umlActor;verticalLabelPosition=bottom;verticalAlign=top;html=1;" vertex="1" parent="1">
          <mxGeometry x="10" y="520" width="30" height="60" as="geometry" />
        </mxCell>
        <mxCell id="ZUQyiE253Cws7TkJIunK-3" value="Cadastro de Cliente" style="ellipse;whiteSpace=wrap;html=1;" vertex="1" parent="1">
          <mxGeometry x="250" y="410" width="140" height="70" as="geometry" />
        </mxCell>
        <mxCell id="ZUQyiE253Cws7TkJIunK-4" value="Visualizar CardÃ¡pio" style="ellipse;whiteSpace=wrap;html=1;" vertex="1" parent="1">
          <mxGeometry x="250" y="515" width="140" height="70" as="geometry" />
        </mxCell>
        <mxCell id="ZUQyiE253Cws7TkJIunK-40" style="edgeStyle=orthogonalEdgeStyle;rounded=0;orthogonalLoop=1;jettySize=auto;html=1;exitX=0;exitY=0.5;exitDx=0;exitDy=0;entryX=1;entryY=0.5;entryDx=0;entryDy=0;" edge="1" parent="1" source="ZUQyiE253Cws7TkJIunK-5" target="ZUQyiE253Cws7TkJIunK-4">
          <mxGeometry relative="1" as="geometry" />
        </mxCell>
        <mxCell id="ZUQyiE253Cws7TkJIunK-5" value="Adicionar Produtos ao Carrinho" style="ellipse;whiteSpace=wrap;html=1;" vertex="1" parent="1">
          <mxGeometry x="457" y="515" width="140" height="70" as="geometry" />
        </mxCell>
        <mxCell id="ZUQyiE253Cws7TkJIunK-8" value="" style="endArrow=none;html=1;rounded=0;entryX=0;entryY=0.5;entryDx=0;entryDy=0;" edge="1" parent="1" target="ZUQyiE253Cws7TkJIunK-3">
          <mxGeometry width="50" height="50" relative="1" as="geometry">
            <mxPoint x="40" y="550" as="sourcePoint" />
            <mxPoint x="160" y="368" as="targetPoint" />
          </mxGeometry>
        </mxCell>
        <mxCell id="ZUQyiE253Cws7TkJIunK-12" value="" style="endArrow=none;html=1;rounded=0;entryX=0;entryY=0.5;entryDx=0;entryDy=0;" edge="1" parent="1" target="ZUQyiE253Cws7TkJIunK-4">
          <mxGeometry width="50" height="50" relative="1" as="geometry">
            <mxPoint x="40" y="550" as="sourcePoint" />
            <mxPoint x="275" y="398" as="targetPoint" />
          </mxGeometry>
        </mxCell>
        <mxCell id="ZUQyiE253Cws7TkJIunK-33" value="Realizar Pedido" style="ellipse;whiteSpace=wrap;html=1;" vertex="1" parent="1">
          <mxGeometry x="660" y="515" width="140" height="68" as="geometry" />
        </mxCell>
        <mxCell id="ZUQyiE253Cws7TkJIunK-34" value="Rastrear Pedido" style="ellipse;whiteSpace=wrap;html=1;" vertex="1" parent="1">
          <mxGeometry x="660" y="634" width="140" height="70" as="geometry" />
        </mxCell>
        <mxCell id="ZUQyiE253Cws7TkJIunK-35" value="Gerenciar Conta" style="ellipse;whiteSpace=wrap;html=1;" vertex="1" parent="1">
          <mxGeometry x="457" y="410" width="140" height="70" as="geometry" />
        </mxCell>
        <mxCell id="ZUQyiE253Cws7TkJIunK-41" value="&amp;lt;&amp;lt;includes&amp;gt;&amp;gt;" style="text;html=1;align=center;verticalAlign=middle;resizable=0;points=[];autosize=1;strokeColor=none;fillColor=none;fontSize=9;" vertex="1" parent="1">
          <mxGeometry x="385" y="565" width="80" height="20" as="geometry" />
        </mxCell>
        <mxCell id="ZUQyiE253Cws7TkJIunK-42" value="Gerenciar Carrinho de Compras" style="ellipse;whiteSpace=wrap;html=1;" vertex="1" parent="1">
          <mxGeometry x="457" y="634" width="140" height="70" as="geometry" />
        </mxCell>
        <mxCell id="ZUQyiE253Cws7TkJIunK-43" style="edgeStyle=orthogonalEdgeStyle;rounded=0;orthogonalLoop=1;jettySize=auto;html=1;exitX=0.5;exitY=0;exitDx=0;exitDy=0;entryX=0.5;entryY=1;entryDx=0;entryDy=0;" edge="1" parent="1" source="ZUQyiE253Cws7TkJIunK-42" target="ZUQyiE253Cws7TkJIunK-5">
          <mxGeometry relative="1" as="geometry">
            <mxPoint x="467" y="560" as="sourcePoint" />
            <mxPoint x="400" y="560" as="targetPoint" />
          </mxGeometry>
        </mxCell>
        <mxCell id="ZUQyiE253Cws7TkJIunK-44" value="&amp;lt;&amp;lt;extends&amp;gt;&amp;gt;" style="text;html=1;align=center;verticalAlign=middle;resizable=0;points=[];autosize=1;strokeColor=none;fillColor=none;fontSize=9;" vertex="1" parent="1">
          <mxGeometry x="527" y="604" width="80" height="20" as="geometry" />
        </mxCell>
        <mxCell id="ZUQyiE253Cws7TkJIunK-45" style="edgeStyle=orthogonalEdgeStyle;rounded=0;orthogonalLoop=1;jettySize=auto;html=1;exitX=0.5;exitY=0;exitDx=0;exitDy=0;entryX=0.5;entryY=1;entryDx=0;entryDy=0;" edge="1" parent="1">
          <mxGeometry relative="1" as="geometry">
            <mxPoint x="730" y="633" as="sourcePoint" />
            <mxPoint x="730" y="584" as="targetPoint" />
          </mxGeometry>
        </mxCell>
        <mxCell id="ZUQyiE253Cws7TkJIunK-46" value="&amp;lt;&amp;lt;extends&amp;gt;&amp;gt;" style="text;html=1;align=center;verticalAlign=middle;resizable=0;points=[];autosize=1;strokeColor=none;fillColor=none;fontSize=9;" vertex="1" parent="1">
          <mxGeometry x="730" y="603" width="80" height="20" as="geometry" />
        </mxCell>
        <mxCell id="ZUQyiE253Cws7TkJIunK-48" value="&amp;lt;&amp;lt;extends&amp;gt;&amp;gt;" style="text;html=1;align=center;verticalAlign=middle;resizable=0;points=[];autosize=1;strokeColor=none;fillColor=none;fontSize=9;" vertex="1" parent="1">
          <mxGeometry x="385" y="424" width="80" height="20" as="geometry" />
        </mxCell>
        <mxCell id="ZUQyiE253Cws7TkJIunK-49" style="edgeStyle=orthogonalEdgeStyle;rounded=0;orthogonalLoop=1;jettySize=auto;html=1;exitX=0;exitY=0.5;exitDx=0;exitDy=0;entryX=1;entryY=0.5;entryDx=0;entryDy=0;" edge="1" parent="1" source="ZUQyiE253Cws7TkJIunK-35" target="ZUQyiE253Cws7TkJIunK-3">
          <mxGeometry relative="1" as="geometry">
            <mxPoint x="537" y="644" as="sourcePoint" />
            <mxPoint x="537" y="595" as="targetPoint" />
          </mxGeometry>
        </mxCell>
        <mxCell id="ZUQyiE253Cws7TkJIunK-54" style="edgeStyle=orthogonalEdgeStyle;rounded=0;orthogonalLoop=1;jettySize=auto;html=1;exitX=0;exitY=0.5;exitDx=0;exitDy=0;entryX=1;entryY=0.5;entryDx=0;entryDy=0;" edge="1" parent="1">
          <mxGeometry relative="1" as="geometry">
            <mxPoint x="662" y="550" as="sourcePoint" />
            <mxPoint x="595" y="550" as="targetPoint" />
          </mxGeometry>
        </mxCell>
        <mxCell id="ZUQyiE253Cws7TkJIunK-55" value="&amp;lt;&amp;lt;includes&amp;gt;&amp;gt;" style="text;html=1;align=center;verticalAlign=middle;resizable=0;points=[];autosize=1;strokeColor=none;fillColor=none;fontSize=9;" vertex="1" parent="1">
          <mxGeometry x="590" y="565" width="80" height="20" as="geometry" />
        </mxCell>
        <mxCell id="ZUQyiE253Cws7TkJIunK-57" style="edgeStyle=orthogonalEdgeStyle;rounded=0;orthogonalLoop=1;jettySize=auto;html=1;exitX=0.5;exitY=0;exitDx=0;exitDy=0;entryX=0.5;entryY=0;entryDx=0;entryDy=0;" edge="1" parent="1" source="ZUQyiE253Cws7TkJIunK-33" target="ZUQyiE253Cws7TkJIunK-3">
          <mxGeometry relative="1" as="geometry">
            <mxPoint x="712" y="480" as="sourcePoint" />
            <mxPoint x="320" y="360" as="targetPoint" />
            <Array as="points">
              <mxPoint x="730" y="360" />
              <mxPoint x="320" y="360" />
            </Array>
          </mxGeometry>
        </mxCell>
        <mxCell id="ZUQyiE253Cws7TkJIunK-59" value="&amp;lt;&amp;lt;includes&amp;gt;&amp;gt;" style="text;html=1;align=center;verticalAlign=middle;resizable=0;points=[];autosize=1;strokeColor=none;fillColor=none;fontSize=9;" vertex="1" parent="1">
          <mxGeometry x="487" y="340" width="80" height="20" as="geometry" />
        </mxCell>
      </root>
    </mxGraphModel>
  </diagram>
</mxfile>
